<svg xmlns="http://www.w3.org/2000/svg" width="50.613" height="50.577" viewBox="0 0 50.613 50.577"><defs><style>.a{fill:#1e75c5;}.b{fill:#005cac;}.c{fill:#fff;}.d{fill:#eae1dc;}.e{fill:#cec5c0;}.f{fill:#ff807d;}.g{fill:#fc3e53;}</style></defs><g transform="translate(0.055 0)"><g transform="translate(-0.055 0)"><circle class="a" cx="25" cy="25" r="25"/></g><path class="b" d="M117.916,72.806,97.5,52.385,74.546,82.966l2.768,2.8,1.17,5.031,5.782,5.782a25.4,25.4,0,0,0,33.651-23.77Z" transform="translate(-67.359 -47.379)"/><g transform="translate(5.863 5.006)"><g transform="translate(3.427)"><path class="c" d="M95.751,57.471V86.883a5.086,5.086,0,0,0,5.086,5.086h21.605a5.086,5.086,0,0,0,5.086-5.086V63.315L116.6,52.385H100.837a5.086,5.086,0,0,0-5.086,5.086Z" transform="translate(-95.751 -52.385)"/><path class="d" d="M271.886,63.312V86.88a5.086,5.086,0,0,1-5.086,5.086H256V52.382h4.959Z" transform="translate(-240.109 -52.382)"/><path class="e" d="M316.94,63.315l-10.93-10.93v10.93Z" transform="translate(-285.163 -52.385)"/></g><path class="f" d="M96.5,228.9h-32a3.314,3.314,0,0,1-3.314-3.314v-8.628a3.314,3.314,0,0,1,3.314-3.314h32a3.314,3.314,0,0,1,3.314,3.314v8.628A3.314,3.314,0,0,1,96.5,228.9Z" transform="translate(-61.185 -197.655)"/><path class="g" d="M275.315,216.955v8.628A3.313,3.313,0,0,1,272,228.9H256V213.64h16A3.314,3.314,0,0,1,275.315,216.955Z" transform="translate(-236.684 -197.651)"/><g transform="translate(10.768 20.013)"><path class="d" d="M307.787,255.931v-1.487H304v7.165h1.487v-2.893H307.6v-1.487h-2.118v-1.3Z" transform="translate(-290.692 -254.423)"/><path class="c" d="M235.356,255.086h-2.317v.01h0l0,.749c0,.173,0,2.149,0,2.754,0,.772.007,2.784.007,2.784l0,.744.744,0c.048,0,1.169,0,1.617-.012,1.7-.03,2.926-1.5,2.926-3.507C238.341,256.5,237.141,255.086,235.356,255.086Zm.033,5.539c-.193,0-.524.006-.835.008l-.022-4.059h.824c1.39,0,1.5,1.555,1.5,2.032C236.854,259.982,236.118,260.612,235.389,260.625Z" transform="translate(-226.765 -255.001)"/><path class="d" d="M259.028,258.605c0-2.1-1.2-3.519-2.985-3.519H256v1.487h.043c1.39,0,1.5,1.555,1.5,2.032,0,1.377-.736,2.007-1.465,2.02H256v1.487l.1,0C257.8,262.082,259.028,260.607,259.028,258.605Z" transform="translate(-247.452 -255.001)"/><path class="c" d="M172.128,254.232h-2.336v7.207h1.487v-2.489l.849,0a2.358,2.358,0,1,0,0-4.716Zm0,3.228-.842,0c0-.322,0-.671,0-.874,0-.172,0-.533,0-.871h.847a.871.871,0,1,1,0,1.741Z" transform="translate(-169.792 -254.232)"/></g></g></g></svg>