<svg xmlns="http://www.w3.org/2000/svg" width="70.256" height="70.26" viewBox="0 0 70.256 70.26"><defs><style>.a{fill:#8dc63f;}.b{fill:#66a50f;}.c{fill:#fff;}.d{fill:#eae1dc;}.e{fill:#cec5c0;}.f{fill:#ff807d;}.g{fill:#fc3e53;}</style></defs><g transform="translate(-0.294 -0.294)"><g transform="translate(-0.125 -0.125)"><circle class="a" cx="35" cy="35" r="35" transform="translate(0.42 0.42)"/></g><path class="b" d="M134.8,80.753,106.427,52.385,74.546,94.868l3.845,3.886,1.626,6.989,8.032,8.032A35.279,35.279,0,0,0,134.8,80.753Z" transform="translate(-64.245 -45.136)"/><g transform="translate(8.461 7.248)"><g transform="translate(4.761)"><path class="c" d="M95.751,59.45v40.859a7.065,7.065,0,0,0,7.065,7.065H132.83a7.065,7.065,0,0,0,7.065-7.065V67.568L124.711,52.385h-21.9a7.065,7.065,0,0,0-7.065,7.065Z" transform="translate(-95.751 -52.385)"/><path class="d" d="M278.07,67.565v32.741A7.065,7.065,0,0,1,271,107.371H256V52.382h6.889Z" transform="translate(-233.925 -52.382)"/><path class="e" d="M321.193,67.568,306.01,52.385V67.568Z" transform="translate(-277.05 -52.385)"/></g><path class="f" d="M110.248,234.837H65.789a4.6,4.6,0,0,1-4.6-4.6V218.248a4.6,4.6,0,0,1,4.6-4.6h44.459a4.6,4.6,0,0,1,4.6,4.6v11.986A4.6,4.6,0,0,1,110.248,234.837Z" transform="translate(-61.185 -191.432)"/><path class="g" d="M282.833,218.245V230.23a4.6,4.6,0,0,1-4.6,4.6H256V213.64h22.229A4.6,4.6,0,0,1,282.833,218.245Z" transform="translate(-229.167 -191.429)"/><g transform="translate(14.959 27.802)"><path class="d" d="M309.261,256.51v-2.066H304V264.4h2.066v-4.019h2.943v-2.066h-2.943v-1.8Z" transform="translate(-285.513 -254.415)"/><path class="c" d="M236.259,255.086H233.04v.014h0l.006,1.04c0,.241.006,2.986.006,3.826,0,1.072.01,3.868.01,3.868l0,1.033,1.033,0c.066,0,1.624-.006,2.246-.017,2.356-.041,4.065-2.09,4.065-4.871C240.406,257.05,238.739,255.086,236.259,255.086Zm.046,7.694c-.268,0-.728.009-1.16.011l-.031-5.639h1.145c1.931,0,2.081,2.16,2.081,2.823C238.34,261.888,237.317,262.763,236.3,262.78Z" transform="translate(-224.325 -254.968)"/><path class="d" d="M260.207,259.975c0-2.924-1.667-4.889-4.147-4.889H256v2.066h.06c1.931,0,2.081,2.16,2.081,2.823,0,1.914-1.022,2.788-2.035,2.806l-.105,0v2.066l.141,0C258.5,264.8,260.207,262.756,260.207,259.975Z" transform="translate(-244.126 -254.968)"/><path class="c" d="M173.037,254.232h-3.245v10.012h2.066v-3.457c.434,0,.9,0,1.179,0a3.276,3.276,0,1,0,0-6.551Zm0,4.485-1.17,0c0-.447,0-.932,0-1.213,0-.239,0-.74,0-1.209h1.176a1.21,1.21,0,1,1,0,2.419Z" transform="translate(-169.792 -254.232)"/></g></g></g></svg>